<svg width="103" height="97" viewBox="0 0 103 97" fill="none" xmlns="http://www.w3.org/2000/svg">
<g id="earth-and-moon/cuate">
<g id="background-complete">
<g id="Group" opacity="0.4">
<path id="Vector" d="M91.1999 41.1927C90.8788 40.4632 90.5272 39.738 90.1755 39.0085C89.4744 37.5451 88.7755 36.0555 88.1748 34.5026C87.5534 32.9334 87.0426 31.3226 86.6459 29.6821C86.5455 29.2671 86.4581 28.8478 86.3729 28.4284C86.2877 28.0091 86.2178 27.5548 86.1436 27.2097C85.995 26.4649 85.8116 25.7375 85.6019 25.0255C85.3945 24.3322 85.1503 23.6505 84.8702 22.9833C84.6077 22.3381 84.3034 21.7106 83.9594 21.1049C83.3171 19.9443 82.5312 18.8692 81.6202 17.9051C79.8554 16.0093 77.5358 14.666 74.9585 13.8164C74.3163 13.598 73.648 13.4276 72.9927 13.2812C72.6607 13.2092 72.3375 13.1458 72.0055 13.089L71.4136 12.9951C71.1952 12.958 70.9767 12.9274 70.7583 12.8815C68.9772 12.5514 67.232 12.0503 65.5469 11.3854C63.9263 10.7169 62.3568 9.93064 60.851 9.03305C59.4181 8.20088 58.1273 7.41895 56.8343 6.80084C56.1934 6.49073 55.5373 6.21299 54.8685 5.96867C54.5365 5.84417 54.2002 5.73278 53.8616 5.62576L53.3746 5.4816C53.2304 5.4401 53.0884 5.3986 52.9377 5.36366C52.3842 5.22354 51.8159 5.15021 51.245 5.14524C50.7112 5.14768 50.1809 5.23165 49.6724 5.39423C49.1749 5.55002 48.7148 5.80674 48.321 6.14835C47.9271 6.48996 47.608 6.90912 47.3834 7.37964C47.1295 7.91101 46.9811 8.48663 46.9466 9.07455C46.9148 9.73001 46.9803 10.3866 47.141 11.0228C47.5227 12.4273 48.1896 13.7381 49.1002 14.8735C50.0284 16.0709 51.1506 17.1045 52.4201 17.9313C53.7254 18.7731 55.122 19.4641 56.5831 19.991C58.0574 20.5436 59.5951 20.9761 61.1698 21.4238C62.7446 21.8716 64.3696 22.339 66.0034 23.1711C66.866 23.6004 67.6644 24.1481 68.3754 24.7983C68.5589 24.9709 68.738 25.1522 68.9105 25.34C69.0831 25.5278 69.2425 25.7332 69.391 25.9297C69.6881 26.3229 69.9458 26.7139 70.1861 27.1048C71.0634 28.587 71.8257 30.1343 72.4663 31.7331C72.783 32.4997 73.0888 33.262 73.3706 34.0264C73.6523 34.7909 73.9385 35.5553 74.2027 36.3023C75.2686 39.3252 76.2187 42.3131 77.2955 45.1132C77.8008 46.465 78.4023 47.7789 79.0953 49.0447C79.409 49.6179 79.7745 50.1611 80.1874 50.6676C80.3781 50.902 80.587 51.1211 80.812 51.3228C80.919 51.4255 81.0304 51.5128 81.1418 51.6046L81.3122 51.7313C81.3755 51.7771 81.4585 51.8252 81.5306 51.871C82.6815 52.6277 84.0041 53.0829 85.3769 53.1946C86.4165 53.2523 87.4511 53.0138 88.3605 52.5066C88.6696 52.3262 88.962 52.1187 89.2342 51.8863C90.359 50.9515 91.1519 49.5624 91.5799 48.0728C91.9945 46.5514 92.1087 44.9638 91.9163 43.3987C91.778 42.6344 91.537 41.8924 91.1999 41.1927ZM92.3641 48.2606C92.0618 49.9557 91.3445 51.5496 90.276 52.8998C89.991 53.2471 89.676 53.5687 89.3346 53.8608C88.9897 54.1638 88.6176 54.4344 88.2229 54.669C87.4133 55.1488 86.5264 55.4844 85.6019 55.6606C84.6738 55.8389 83.7247 55.8816 82.7843 55.7872C81.8585 55.6947 80.9454 55.5029 80.0607 55.215C79.9493 55.1779 79.8423 55.1473 79.7265 55.1036L79.3574 54.9594C79.1174 54.8585 78.8826 54.7455 78.6541 54.6209C78.2052 54.3806 77.7764 54.1045 77.372 53.7953C76.9788 53.5019 76.6066 53.1815 76.258 52.8364C75.9108 52.5023 75.5919 52.155 75.2861 51.8033C74.1472 50.4249 73.1751 48.9169 72.3899 47.3105C70.8501 44.2221 69.8475 41.0551 68.9848 37.9361C68.7664 37.1563 68.5698 36.3766 68.3732 35.6012L67.7922 33.2991C67.5935 32.5412 67.4078 31.7855 67.196 31.056C66.9841 30.3265 66.7788 29.6057 66.5298 28.9482C66.4053 28.6184 66.2742 28.3039 66.1366 28.02C66.0689 27.878 65.999 27.747 65.9291 27.6181C65.8592 27.4892 65.7741 27.3604 65.6889 27.2337C65.3108 26.6944 64.8561 26.2132 64.3391 25.8052C63.247 24.9316 61.8382 24.2174 60.3857 23.5927C57.4677 22.3215 54.2854 21.319 51.3826 19.5651C50.6536 19.1239 49.9506 18.6411 49.2771 18.1192C48.5991 17.587 47.9583 17.0091 47.3594 16.3893C46.1043 15.1241 45.0785 13.6504 44.3278 12.0341C43.9362 11.1547 43.6735 10.2234 43.548 9.26894C43.4104 8.24321 43.4667 7.20075 43.714 6.19582C43.9768 5.13421 44.463 4.14088 45.1403 3.28215C45.8272 2.41083 46.683 1.68724 47.6564 1.15477C48.6089 0.63881 49.6434 0.291504 50.7143 0.128218C51.7471 -0.0309548 52.7973 -0.0419867 53.8332 0.0954557C54.0888 0.126034 54.3378 0.167533 54.589 0.211217L55.2442 0.346634C55.681 0.444922 56.1179 0.549761 56.5547 0.672075C57.4237 0.912726 58.2796 1.19851 59.1189 1.52827C60.7876 2.18352 62.3165 2.96326 63.7275 3.64254C65.0408 4.30339 66.3982 4.87263 67.79 5.34618C69.1308 5.78854 70.5067 6.11661 71.9028 6.32687L73.0386 6.49287C73.5082 6.56276 73.969 6.64358 74.4255 6.74623C75.3378 6.93996 76.2367 7.19239 77.1164 7.50195C78.9041 8.11805 80.6004 8.97248 82.1596 10.0421C83.7495 11.132 85.1599 12.4628 86.3401 13.9867C87.5036 15.5019 88.3982 17.2055 88.9852 19.0234C89.5365 20.7643 89.8359 22.5751 89.8741 24.4008C89.897 25.2753 89.8707 26.1503 89.7955 27.0218C89.7605 27.4761 89.719 27.8234 89.6841 28.2144C89.6491 28.6053 89.6251 28.9832 89.612 29.3676C89.5402 30.9272 89.6243 32.4901 89.8632 34.033C89.9921 34.8105 90.1428 35.5881 90.3437 36.3569C90.5447 37.1258 90.7805 37.8858 91.0405 38.6459C91.3004 39.406 91.5909 40.1552 91.8704 40.9196C92.008 41.3019 92.15 41.6841 92.2701 42.0816C92.4019 42.4861 92.4948 42.9023 92.5475 43.3244C92.7325 44.9694 92.6737 46.6328 92.3728 48.2606H92.3641Z" fill="#EBEBEB"/>
<path id="Vector_2" d="M23.3712 88.008L21.9711 87.8049C21.5037 87.735 21.0363 87.6695 20.5689 87.5865C20.1015 87.5035 19.6341 87.4292 19.1645 87.3528C18.6949 87.2763 18.2297 87.1868 17.7601 87.1038C15.8582 86.7684 13.9791 86.3146 12.1337 85.7452C11.1846 85.4452 10.2534 85.0915 9.34449 84.6859C8.40238 84.2596 7.49785 83.7548 6.64049 83.1766C6.19873 82.8748 5.77228 82.5512 5.36276 82.2069C5.15526 82.0278 4.95869 81.8334 4.75775 81.6455C4.65727 81.5494 4.55462 81.4555 4.45633 81.3551L4.17676 81.0405C3.38979 80.1812 2.73868 79.2068 2.24596 78.1509C2.12146 77.8779 1.99915 77.6048 1.88557 77.3275C1.772 77.0501 1.69992 76.7552 1.60818 76.4669C1.5645 76.3227 1.51645 76.1786 1.47932 76.0301L1.3854 75.5932C1.32424 75.2962 1.25653 74.9991 1.21067 74.7021L1.12112 73.8066C1.10801 73.6559 1.08835 73.5052 1.08398 73.3567V72.0178C1.10364 71.7273 1.13204 71.4368 1.15825 71.1441C1.20955 70.568 1.29488 69.9955 1.41379 69.4295L1.49242 69.0058L1.59726 68.5952L1.81568 67.7761C1.88557 67.4987 1.97075 67.2432 2.05375 66.9854C2.13675 66.7277 2.21538 66.47 2.30712 66.2079C2.49932 65.6859 2.68061 65.166 2.92087 64.6397C3.38186 63.5364 3.95959 62.4857 4.64417 61.5054C5.36162 60.4769 6.20797 59.5447 7.16251 58.7315C8.06141 57.9794 9.02887 57.3132 10.0522 56.7417C11.0154 56.2022 11.948 55.7436 12.8566 55.3373C14.676 54.5161 16.395 53.7909 18.0986 53.0352C21.4895 51.5387 24.7858 49.8363 27.9688 47.9374L28.5695 47.5792L29.1658 47.21C29.5611 46.961 29.9608 46.7208 30.354 46.4652L32.7806 44.897C33.1999 44.6218 33.6346 44.3663 34.0627 44.0998C34.4908 43.8333 34.9363 43.5974 35.3732 43.3463C35.81 43.0951 36.2577 42.8636 36.7033 42.6277C37.1489 42.3918 37.6054 42.1755 38.0597 41.9549C38.9727 41.5181 39.9002 41.1177 40.8423 40.7537L41.55 40.485L42.2686 40.236C42.7425 40.0635 43.2318 39.9237 43.7123 39.7708C44.6864 39.489 45.6649 39.2291 46.6631 39.0435C47.658 38.844 48.6637 38.7033 49.6751 38.6219C51.6966 38.4329 53.7349 38.5463 55.723 38.9583C56.2188 39.0566 56.7059 39.1963 57.1929 39.3339L57.9094 39.5764C58.1474 39.6572 58.3768 39.7642 58.6127 39.856C59.5407 40.2434 60.4287 40.7203 61.2642 41.28C62.0862 41.8472 62.8546 42.4884 63.5598 43.1955C63.7302 43.3768 63.9049 43.5494 64.0752 43.7394L64.5689 44.3379C64.8908 44.759 65.1723 45.2094 65.4098 45.6833C65.8955 46.671 66.1502 47.7562 66.1546 48.8569C66.1448 49.9357 65.9642 51.0061 65.6195 52.0283C65.2941 53.0101 64.8932 53.9653 64.4203 54.8852C64.2019 55.3439 63.9595 55.7872 63.7192 56.2306L62.981 57.5411C61.9872 59.2622 60.9672 60.9266 60.0673 62.5975C59.6196 63.4296 59.1936 64.2596 58.8398 65.083C58.4847 65.8646 58.1989 66.6759 57.9858 67.5075C57.7991 68.2982 57.6799 69.1034 57.6298 69.9144C57.5734 70.7738 57.561 71.6355 57.5927 72.4961L57.6189 73.1513L57.6582 73.8241C57.6888 74.2762 57.7128 74.7283 57.7521 75.1892L57.9705 78.0089C58.1538 80.0276 58.191 82.0569 58.0819 84.0809C58.0091 85.1847 57.8447 86.2805 57.5905 87.3571C57.3201 88.5044 56.9085 89.6136 56.3652 90.6596C55.8095 91.7266 55.1009 92.7067 54.2618 93.5689C54.0346 93.7888 53.8053 94.0072 53.5738 94.2241C53.3226 94.4251 53.0649 94.6217 52.8093 94.8095C52.5538 94.9973 52.2524 95.1502 51.9706 95.3053C51.6889 95.4604 51.3831 95.5827 51.0817 95.6919C49.94 96.0974 48.7211 96.2378 47.5171 96.1025C46.4706 95.9802 45.4433 95.7278 44.4593 95.3512C43.5415 95.0058 42.6445 94.6076 41.7728 94.1586C40.9144 93.7327 40.0844 93.285 39.2522 92.8372C37.5988 91.9439 35.9607 91.0702 34.257 90.3429C32.569 89.5893 30.7888 89.062 28.9626 88.7747L23.3712 88.008ZM34.5606 89.5719C36.3517 90.1616 38.1121 90.8212 39.8878 91.4C40.7615 91.6971 41.6614 91.9635 42.546 92.2038C43.4152 92.4319 44.2969 92.6098 45.1866 92.7367C46.0086 92.862 46.8433 92.8803 47.67 92.7913C48.3675 92.7179 49.0395 92.488 49.6357 92.1186C50.1829 91.7536 50.6485 91.2791 51.003 90.7251C51.4222 90.1041 51.7612 89.4326 52.0121 88.7266C52.5123 87.3244 52.7001 85.7409 52.7351 84.0241C52.8137 80.584 52.2808 76.7443 52.5516 72.5725C52.7045 70.4823 53.054 68.3112 53.9604 66.162C54.3975 65.1608 54.9199 64.1992 55.5221 63.2877C56.0921 62.414 56.695 61.5775 57.3087 60.7824C58.5362 59.1967 59.7921 57.7093 60.9366 56.1957C61.5132 55.4356 62.0549 54.6668 62.5441 53.8717C63.0283 53.0998 63.4427 52.2862 63.7826 51.4408C64.1068 50.6452 64.2872 49.7985 64.3155 48.9399C64.3313 48.1261 64.1436 47.3213 63.7695 46.5985C63.5836 46.2345 63.3642 45.8887 63.1142 45.5654L62.697 45.0936C62.5507 44.9385 62.3847 44.79 62.2296 44.6371C61.5958 44.042 60.8985 43.5183 60.1503 43.0754C58.6503 42.2102 56.9771 41.688 55.2512 41.5465C54.3853 41.4646 53.5136 41.4646 52.6477 41.5465C51.7712 41.6216 50.9012 41.7588 50.0442 41.9571C48.3077 42.3842 46.6166 42.9782 44.9944 43.7307C44.586 43.9294 44.1753 44.1085 43.7734 44.3204L43.1684 44.6305L42.57 44.956C41.7684 45.3797 40.9865 45.8559 40.2045 46.3233C39.8157 46.5635 39.4313 46.8125 39.0447 47.0571L37.9068 47.8216C37.1489 48.3414 36.3953 48.87 35.6505 49.416L33.32 51.1306C32.9203 51.4255 32.5119 51.705 32.1078 52.0043L31.4985 52.4411L30.8803 52.8605C27.596 55.1135 24.156 57.1309 20.5864 58.8975C19.7018 59.3343 18.8194 59.7712 17.9414 60.1665C17.0633 60.5618 16.194 60.9659 15.3728 61.3612C13.7041 62.1475 12.2232 62.9142 11.1464 63.7878C10.6127 64.2182 10.1324 64.711 9.7158 65.2556C9.2662 65.8557 8.87698 66.4988 8.55382 67.1755C8.37035 67.5271 8.21309 67.9181 8.04273 68.2959C7.96191 68.4903 7.88765 68.6935 7.80902 68.8922C7.73039 69.091 7.64958 69.2941 7.59061 69.4841C7.32402 70.2309 7.11161 70.9959 6.95501 71.7731L6.84581 72.3366L6.78683 72.8871L6.75189 73.1644C6.75189 73.2584 6.75189 73.3457 6.75189 73.4353L6.73441 73.977C6.73441 74.1561 6.75189 74.3308 6.75844 74.5077V74.7764C6.75844 74.8637 6.78465 74.9489 6.79557 75.0363L6.8742 75.5605C6.92225 75.7287 6.96157 75.899 7.00088 76.0737C7.18992 76.7796 7.47429 77.4564 7.84615 78.0854L7.98376 78.3234C8.03399 78.4042 8.09296 78.4829 8.14757 78.5615L8.47956 79.0442C8.73511 79.3478 8.96444 79.6776 9.25931 79.9659C9.83369 80.5856 10.4575 81.1575 11.1246 81.6761C11.8226 82.2133 12.552 82.7085 13.3087 83.1592C14.8813 84.0895 16.5349 84.8753 18.2493 85.5071C19.123 85.8304 19.9967 86.134 20.8703 86.3961C21.3071 86.5293 21.7593 86.6669 22.2114 86.7805L22.8841 86.9596L23.5634 87.1234C25.3762 87.5603 27.2153 87.8923 29.0675 88.1609C30.9353 88.4741 32.7731 88.9461 34.5606 89.5719Z" fill="#EBEBEB"/>
<path id="Vector_3" d="M37.5299 14.4935C36.9322 14.3434 36.3251 14.234 35.7127 14.1658C35.42 14.1265 35.1382 14.1047 34.8521 14.0807C34.566 14.0566 34.2864 14.0479 34.009 14.0435C33.4542 14.0217 32.9169 14.0435 32.3709 14.0435C30.2239 14.1287 28.1729 14.4563 26.1482 14.7687L25.4318 14.8779L25.1129 14.9237L24.7897 14.9499C24.5712 14.9696 24.3528 14.9631 24.1213 14.9696C23.8898 14.9762 23.6648 14.9499 23.4311 14.9325C23.1974 14.915 22.9681 14.891 22.73 14.8517C22.4919 14.8123 22.2604 14.7818 22.0223 14.7359C21.5506 14.6376 21.0657 14.535 20.5895 14.4017C18.6631 13.895 16.7607 13.1415 14.6355 12.6544C13.5121 12.3903 12.3539 12.3063 11.2042 12.4054C10.5842 12.4672 9.97357 12.6014 9.38476 12.8051C9.08719 12.9101 8.79554 13.0311 8.5111 13.1677C8.36694 13.2376 8.22279 13.3053 8.07426 13.3861L7.67019 13.6263C7.14236 13.9506 6.64393 14.3204 6.18059 14.7315C5.9447 14.9368 5.72192 15.1837 5.49258 15.4152C5.26325 15.6467 5.08414 15.9132 4.87883 16.1687C4.67352 16.4243 4.52281 16.6929 4.34808 16.9637C4.25853 17.0992 4.18864 17.2368 4.11656 17.3722L3.89814 17.7894L3.79112 18.0078L3.70157 18.2262L3.52465 18.663C3.40484 18.9437 3.30129 19.231 3.2145 19.5236C2.85855 20.6573 2.64792 21.8315 2.58765 23.0182C2.53258 24.1647 2.59552 25.3138 2.77548 26.4474C2.95415 27.5607 3.24691 28.6527 3.64915 29.7062C3.74962 29.9683 3.86756 30.2282 3.96585 30.4837C4.06414 30.7393 4.20829 30.9926 4.33061 31.2438C4.45292 31.495 4.58397 31.744 4.72157 31.9864C4.85918 32.2289 4.99459 32.4713 5.15841 32.7094C5.74785 33.6519 6.41254 34.5452 7.14599 35.3806C7.8622 36.2073 8.64453 36.9743 9.48523 37.674C10.2997 38.3641 11.1773 38.9761 12.1062 39.5021C13.0252 40.0197 14.0149 40.4001 15.0439 40.6313C16.0993 40.8512 17.191 40.8258 18.235 40.5571C19.285 40.2715 20.291 39.8439 21.2251 39.2859C23.0884 38.1714 24.8318 36.8679 26.4278 35.3959C27.2272 34.6773 27.9764 33.9281 28.6884 33.1593C28.7543 33.0839 28.8275 33.0151 28.9068 32.954L29.0946 32.7902C29.2366 32.6941 29.348 32.5718 29.4965 32.491L29.7018 32.3468C29.7761 32.3031 29.8526 32.2616 29.9203 32.2114C30.0579 32.1153 30.2304 32.0367 30.3746 31.9427C31.0848 31.555 31.8187 31.2121 32.5718 30.9162L33.8823 30.3985L34.5878 30.1233L35.3217 29.8197C35.8175 29.6188 36.3417 29.3676 36.8746 29.1033C37.4425 28.8106 37.9918 28.4831 38.5193 28.1226C39.1152 27.7117 39.6671 27.2403 40.1662 26.716C40.7079 26.1449 41.1694 25.5027 41.5378 24.8071L41.682 24.5428L41.8043 24.272C41.8829 24.0907 41.9637 23.9094 42.0358 23.7237C42.1666 23.3625 42.2746 22.9933 42.3591 22.6185L42.4748 22.0659L42.5447 21.5308C42.5863 21.1821 42.6089 20.8314 42.6124 20.4802C42.6124 20.3885 42.6124 20.3186 42.6124 20.2116C42.6124 20.0718 42.6124 19.932 42.595 19.7944C42.5794 19.5036 42.537 19.2147 42.4683 18.9317C42.453 18.8618 42.4377 18.7875 42.418 18.7133L42.3481 18.4948C42.3001 18.3485 42.2477 18.2065 42.1931 18.058C42.0721 17.7809 41.9297 17.5136 41.7672 17.2586C41.6842 17.1385 41.6012 17.0184 41.5138 16.9026C41.4701 16.8436 41.4264 16.7846 41.3827 16.7322L41.2451 16.5793C41.1534 16.481 41.0595 16.3849 40.9634 16.2867C40.8673 16.1884 40.7756 16.1207 40.6794 16.0355C40.5833 15.9503 40.4851 15.8782 40.389 15.8171L40.1072 15.6249C40.0133 15.5637 39.915 15.4938 39.8233 15.4436L39.5502 15.2929C38.9103 14.9485 38.2322 14.6802 37.5299 14.4935Z" fill="#EBEBEB"/>
<path id="Vector_4" d="M66.7895 67.4419C66.6737 68.1073 66.6262 68.7828 66.6476 69.4579C66.6975 70.6879 66.9082 71.9061 67.2744 73.0814C67.5909 74.2299 67.9954 75.3522 68.4844 76.4385C68.9822 77.5289 69.6091 78.5555 70.3519 79.4963C71.1269 80.4737 72.0281 81.344 73.0319 82.0845C74.1578 82.8736 75.4525 83.3889 76.8127 83.5894C77.5358 83.6981 78.2698 83.7135 78.9968 83.6353C80.3265 83.4896 81.5846 82.9581 82.616 82.1064C83.0496 81.7465 83.461 81.3606 83.8478 80.9509C84.0475 80.7321 84.2273 80.496 84.3852 80.2454C84.5326 79.9844 84.6589 79.7119 84.763 79.4308C84.9593 78.85 85.0954 78.2505 85.1693 77.6419C85.3415 76.3767 85.3555 75.0949 85.2108 73.8262C85.0739 72.6082 84.6777 71.4337 84.0488 70.3818C83.4388 69.3842 82.6335 68.5202 81.6812 67.8416C80.7376 67.1514 79.628 66.6578 78.5403 66.21C77.4526 65.7623 76.3715 65.3604 75.3558 64.882C74.3402 64.4037 73.3595 63.8686 72.1255 63.4864C71.7951 63.3825 71.4558 63.3094 71.112 63.268C70.7121 63.2149 70.3065 63.2215 69.9085 63.2876C69.3728 63.3932 68.8738 63.6363 68.4604 63.9931C68.357 64.0823 68.2593 64.1779 68.1677 64.2792C68.0826 64.3753 67.9952 64.4758 67.9144 64.5806C67.772 64.7744 67.6436 64.9781 67.53 65.19C67.426 65.385 67.3327 65.5855 67.2504 65.7907C67.1805 65.9763 67.1019 66.1816 67.0538 66.3607L66.9555 66.6381L66.89 66.9111C66.8507 67.0924 66.8223 67.2628 66.7895 67.4419Z" fill="#EBEBEB"/>
</g>
<path id="Vector_5" d="M14.8711 71.5089L15.7164 71.6661L15.9064 72.5573L16.0942 71.6661L16.9395 71.5089L16.0986 71.3035L15.9064 70.4626L15.712 71.3035L14.8711 71.5089Z" fill="#DBDBDB"/>
<path id="Vector_6" d="M54.3828 4.52278L55.2281 4.68004L55.4181 5.57117L55.6059 4.68004L56.4512 4.52278L55.6103 4.31746L55.4181 3.47656L55.2237 4.31746L54.3828 4.52278Z" fill="#DBDBDB"/>
<path id="Vector_7" d="M57.8223 91.6226L58.6675 91.7777L58.8576 92.6688L59.0454 91.7777L59.8907 91.6226L59.0498 91.4151L58.8576 90.5742L58.6654 91.4151L57.8223 91.6226Z" fill="#DBDBDB"/>
<path id="Vector_8" d="M86.457 73.1425L86.9288 73.2298L87.0358 73.7278L87.1407 73.2298L87.6124 73.1425L87.1429 73.0267L87.0358 72.5571L86.9288 73.0267L86.457 73.1425Z" fill="#DBDBDB"/>
<path id="Vector_9" d="M79.9941 15.3344L80.4659 15.4239L80.5708 15.9197L80.6756 15.4239L81.1496 15.3344L80.6778 15.2208L80.5708 14.7512L80.4637 15.2208L79.9941 15.3344Z" fill="#DBDBDB"/>
<path id="Vector_10" d="M88.9453 31.6698L89.4171 31.7572L89.5219 32.2552L89.629 31.7572L90.1007 31.6698L89.629 31.5541L89.5219 31.0845L89.4149 31.5541L88.9453 31.6698Z" fill="#DBDBDB"/>
<path id="Vector_11" d="M5.13281 75.6064L5.60459 75.6937L5.70943 76.1917L5.81646 75.6937L6.28823 75.6064L5.81864 75.4906L5.70943 75.021L5.60241 75.4906L5.13281 75.6064Z" fill="#DBDBDB"/>
<path id="Vector_12" d="M83.4805 63.3423L83.9522 63.4297L84.0593 63.9277L84.1641 63.4297L84.6359 63.3423L84.1663 63.2266L84.0593 62.757L83.9501 63.2266L83.4805 63.3423Z" fill="#DBDBDB"/>
<path id="Vector_13" d="M19.0742 78.4787L19.5482 78.5682L19.653 79.064L19.7579 78.5682L20.2318 78.4787L19.76 78.3651L19.653 77.8955L19.546 78.3651L19.0742 78.4787Z" fill="#DBDBDB"/>
<path id="Vector_14" d="M9.7919 86.1406C9.82839 86.1406 9.86339 86.1551 9.8892 86.1809C9.915 86.2067 9.9295 86.2417 9.9295 86.2782C9.9295 86.3147 9.915 86.3497 9.8892 86.3755C9.86339 86.4013 9.82839 86.4158 9.7919 86.4158C9.7554 86.4158 9.72041 86.4013 9.6946 86.3755C9.66879 86.3497 9.6543 86.3147 9.6543 86.2782C9.6543 86.2417 9.66879 86.2067 9.6946 86.1809C9.72041 86.1551 9.7554 86.1406 9.7919 86.1406Z" fill="#DBDBDB"/>
<path id="Vector_15" d="M73.9228 67.4856C73.9593 67.4856 73.9943 67.5001 74.0201 67.5259C74.0459 67.5517 74.0604 67.5867 74.0604 67.6232C74.0604 67.6597 74.0459 67.6947 74.0201 67.7205C73.9943 67.7463 73.9593 67.7608 73.9228 67.7608C73.8863 67.7608 73.8513 67.7463 73.8255 67.7205C73.7997 67.6947 73.7852 67.6597 73.7852 67.6232C73.7852 67.5867 73.7997 67.5517 73.8255 67.5259C73.8513 67.5001 73.8863 67.4856 73.9228 67.4856Z" fill="#DBDBDB"/>
<path id="Vector_16" d="M75.216 47.9111C75.2492 47.9153 75.2798 47.9315 75.3019 47.9567C75.3241 47.9818 75.3363 48.0141 75.3363 48.0476C75.3363 48.0811 75.3241 48.1135 75.3019 48.1386C75.2798 48.1638 75.2492 48.1799 75.216 48.1842C75.1828 48.1799 75.1522 48.1638 75.1301 48.1386C75.1079 48.1135 75.0957 48.0811 75.0957 48.0476C75.0957 48.0141 75.1079 47.9818 75.1301 47.9567C75.1522 47.9315 75.1828 47.9153 75.216 47.9111Z" fill="#DBDBDB"/>
<path id="Vector_17" d="M23.3742 86.0051C23.4074 86.0093 23.438 86.0255 23.4601 86.0507C23.4823 86.0758 23.4945 86.1081 23.4945 86.1416C23.4945 86.1751 23.4823 86.2075 23.4601 86.2326C23.438 86.2577 23.4074 86.2739 23.3742 86.2781C23.341 86.2739 23.3104 86.2577 23.2883 86.2326C23.2661 86.2075 23.2539 86.1751 23.2539 86.1416C23.2539 86.1081 23.2661 86.0758 23.2883 86.0507C23.3104 86.0255 23.341 86.0093 23.3742 86.0051Z" fill="#DBDBDB"/>
<path id="Vector_18" d="M17.757 78.0701C17.7903 78.0743 17.8208 78.0905 17.843 78.1156C17.8651 78.1407 17.8773 78.1731 17.8773 78.2066C17.8773 78.2401 17.8651 78.2724 17.843 78.2976C17.8208 78.3227 17.7903 78.3389 17.757 78.3431C17.7238 78.3389 17.6932 78.3227 17.6711 78.2976C17.6489 78.2724 17.6367 78.2401 17.6367 78.2066C17.6367 78.1731 17.6489 78.1407 17.6711 78.1156C17.6932 78.0905 17.7238 78.0743 17.757 78.0701Z" fill="#DBDBDB"/>
<path id="Vector_19" d="M80.4387 69.2809C80.4719 69.2851 80.5024 69.3013 80.5246 69.3264C80.5467 69.3515 80.559 69.3839 80.559 69.4174C80.559 69.4509 80.5467 69.4832 80.5246 69.5084C80.5024 69.5335 80.4719 69.5497 80.4387 69.5539C80.4054 69.5497 80.3749 69.5335 80.3527 69.5084C80.3306 69.4832 80.3184 69.4509 80.3184 69.4174C80.3184 69.3839 80.3306 69.3515 80.3527 69.3264C80.3749 69.3013 80.4054 69.2851 80.4387 69.2809Z" fill="#DBDBDB"/>
<path id="Vector_20" d="M74.7099 54.136C74.7464 54.136 74.7814 54.1505 74.8072 54.1763C74.833 54.2021 74.8475 54.2371 74.8475 54.2736C74.8475 54.3101 74.833 54.3451 74.8072 54.3709C74.7814 54.3967 74.7464 54.4112 74.7099 54.4112C74.6734 54.4112 74.6384 54.3967 74.6126 54.3709C74.5868 54.3451 74.5723 54.3101 74.5723 54.2736C74.5723 54.2371 74.5868 54.2021 74.6126 54.1763C74.6384 54.1505 74.6734 54.136 74.7099 54.136Z" fill="#DBDBDB"/>
<path id="Vector_21" d="M72.6332 77.7009C72.6587 77.7009 72.6831 77.7111 72.7012 77.7291C72.7192 77.7471 72.7293 77.7715 72.7293 77.797C72.7293 77.8225 72.7192 77.847 72.7012 77.865C72.6831 77.883 72.6587 77.8931 72.6332 77.8931C72.6077 77.8931 72.5833 77.883 72.5653 77.865C72.5472 77.847 72.5371 77.8225 72.5371 77.797C72.5371 77.7715 72.5472 77.7471 72.5653 77.7291C72.5833 77.7111 72.6077 77.7009 72.6332 77.7009Z" fill="#DBDBDB"/>
<path id="Vector_22" d="M21.5368 17.7283C21.5601 17.7318 21.5813 17.7435 21.5967 17.7613C21.612 17.7792 21.6205 17.8019 21.6205 17.8255C21.6205 17.849 21.612 17.8718 21.5967 17.8896C21.5813 17.9074 21.5601 17.9192 21.5368 17.9227C21.5135 17.9192 21.4923 17.9074 21.4769 17.8896C21.4616 17.8718 21.4531 17.849 21.4531 17.8255C21.4531 17.8019 21.4616 17.7792 21.4769 17.7613C21.4923 17.7435 21.5135 17.7318 21.5368 17.7283Z" fill="#DBDBDB"/>
<path id="Vector_23" d="M21.7809 78.9678C21.8042 78.9713 21.8255 78.983 21.8408 79.0008C21.8562 79.0187 21.8646 79.0414 21.8646 79.065C21.8646 79.0885 21.8562 79.1113 21.8408 79.1291C21.8255 79.1469 21.8042 79.1587 21.7809 79.1622C21.7577 79.1587 21.7364 79.1469 21.7211 79.1291C21.7057 79.1113 21.6973 79.0885 21.6973 79.065C21.6973 79.0414 21.7057 79.0187 21.7211 79.0008C21.7364 78.983 21.7577 78.9713 21.7809 78.9678Z" fill="#DBDBDB"/>
<path id="Vector_24" d="M4.67578 49.049L5.52105 49.2041L5.70889 50.0952L5.89891 49.2041L6.74418 49.0468L5.90328 48.8415L5.70889 48.0006L5.51668 48.8415L4.67578 49.049Z" fill="#DBDBDB"/>
<path id="Vector_25" d="M85.0527 27.2795L85.898 27.4346L86.0858 28.3257L86.2737 27.4346L87.119 27.2795L86.2781 27.072L86.0858 26.2311L85.8936 27.072L85.0527 27.2795Z" fill="#DBDBDB"/>
<path id="Vector_26" d="M49.1602 8.62674L49.6341 8.7141L49.739 9.21209L49.8438 8.7141L50.3178 8.62674L49.846 8.51316L49.739 8.04138L49.6319 8.51316L49.1602 8.62674Z" fill="#DBDBDB"/>
<path id="Vector_27" d="M5.71094 25.2593L6.1849 25.3467L6.28974 25.8447L6.39458 25.3467L6.86854 25.2593L6.39677 25.1435L6.28974 24.674L6.18272 25.1435L5.71094 25.2593Z" fill="#DBDBDB"/>
<path id="Vector_28" d="M14.384 24.4336C14.4172 24.4378 14.4478 24.454 14.4699 24.4791C14.4921 24.5043 14.5043 24.5366 14.5043 24.5701C14.5043 24.6036 14.4921 24.6359 14.4699 24.6611C14.4478 24.6862 14.4172 24.7024 14.384 24.7066C14.3507 24.7024 14.3202 24.6862 14.298 24.6611C14.2759 24.6359 14.2637 24.6036 14.2637 24.5701C14.2637 24.5366 14.2759 24.5043 14.298 24.4791C14.3202 24.454 14.3507 24.4378 14.384 24.4336Z" fill="#DBDBDB"/>
<path id="Vector_29" d="M3.97577 73.4768C4.009 73.481 4.03956 73.4972 4.0617 73.5223C4.08385 73.5475 4.09607 73.5798 4.09607 73.6133C4.09607 73.6468 4.08385 73.6792 4.0617 73.7043C4.03956 73.7294 4.009 73.7456 3.97577 73.7498C3.94254 73.7456 3.91198 73.7294 3.88984 73.7043C3.86769 73.6792 3.85547 73.6468 3.85547 73.6133C3.85547 73.5798 3.86769 73.5475 3.88984 73.5223C3.91198 73.4972 3.94254 73.481 3.97577 73.4768Z" fill="#DBDBDB"/>
<path id="Vector_30" d="M15.206 68.7524C15.2425 68.7524 15.2775 68.7669 15.3033 68.7927C15.3291 68.8186 15.3436 68.8536 15.3436 68.89C15.3436 68.9265 15.3291 68.9615 15.3033 68.9873C15.2775 69.0131 15.2425 69.0276 15.206 69.0276C15.1695 69.0276 15.1345 69.0131 15.1087 68.9873C15.0829 68.9615 15.0684 68.9265 15.0684 68.89C15.0684 68.8536 15.0829 68.8186 15.1087 68.7927C15.1345 68.7669 15.1695 68.7524 15.206 68.7524Z" fill="#DBDBDB"/>
<path id="Vector_31" d="M4.10663 34.0941C4.13986 34.0983 4.17041 34.1145 4.19256 34.1396C4.21471 34.1648 4.22693 34.1971 4.22693 34.2306C4.22693 34.2641 4.21471 34.2965 4.19256 34.3216C4.17041 34.3467 4.13986 34.3629 4.10663 34.3671C4.0734 34.3629 4.04284 34.3467 4.02069 34.3216C3.99855 34.2965 3.98633 34.2641 3.98633 34.2306C3.98633 34.1971 3.99855 34.1648 4.02069 34.1396C4.04284 34.1145 4.0734 34.0983 4.10663 34.0941Z" fill="#DBDBDB"/>
<path id="Vector_32" d="M33.1337 6.47974C33.1702 6.47974 33.2052 6.49423 33.231 6.52004C33.2568 6.54584 33.2713 6.58084 33.2713 6.61734C33.2713 6.65383 33.2568 6.68883 33.231 6.71464C33.2052 6.74044 33.1702 6.75494 33.1337 6.75494C33.0972 6.75494 33.0622 6.74044 33.0364 6.71464C33.0106 6.68883 32.9961 6.65383 32.9961 6.61734C32.9961 6.58084 33.0106 6.54584 33.0364 6.52004C33.0622 6.49423 33.0972 6.47974 33.1337 6.47974Z" fill="#DBDBDB"/>
<path id="Vector_33" d="M27.5395 80.3831C27.5649 80.3831 27.5894 80.3932 27.6074 80.4112C27.6254 80.4292 27.6356 80.4537 27.6356 80.4792C27.6356 80.5046 27.6254 80.5291 27.6074 80.5471C27.5894 80.5651 27.5649 80.5753 27.5395 80.5753C27.514 80.5753 27.4895 80.5651 27.4715 80.5471C27.4535 80.5291 27.4434 80.5046 27.4434 80.4792C27.4434 80.4537 27.4535 80.4292 27.4715 80.4112C27.4895 80.3932 27.514 80.3831 27.5395 80.3831Z" fill="#DBDBDB"/>
<path id="Vector_34" d="M87.584 48.1864L88.0579 48.2738L88.1628 48.7718L88.2676 48.2738L88.7394 48.1864L88.2698 48.0729L88.1628 47.6011L88.0558 48.0729L87.584 48.1864Z" fill="#DBDBDB"/>
<path id="Vector_35" d="M61.7133 10.252C61.7388 10.252 61.7632 10.2621 61.7812 10.2801C61.7993 10.2981 61.8094 10.3226 61.8094 10.3481C61.8094 10.3735 61.7993 10.398 61.7812 10.416C61.7632 10.434 61.7388 10.4442 61.7133 10.4442C61.6878 10.4442 61.6634 10.434 61.6453 10.416C61.6273 10.398 61.6172 10.3735 61.6172 10.3481C61.6172 10.3226 61.6273 10.2981 61.6453 10.2801C61.6634 10.2621 61.6878 10.252 61.7133 10.252Z" fill="#DBDBDB"/>
<path id="Vector_36" d="M41.1149 89.3708C41.1382 89.3743 41.1594 89.3861 41.1748 89.4039C41.1902 89.4218 41.1986 89.4445 41.1986 89.468C41.1986 89.4916 41.1902 89.5143 41.1748 89.5322C41.1594 89.55 41.1382 89.5617 41.1149 89.5652C41.0917 89.5617 41.0704 89.55 41.055 89.5322C41.0397 89.5143 41.0312 89.4916 41.0312 89.468C41.0312 89.4445 41.0397 89.4218 41.055 89.4039C41.0704 89.3861 41.0917 89.3743 41.1149 89.3708Z" fill="#DBDBDB"/>
<path id="Vector_37" d="M82.1625 31.0931C82.188 31.0931 82.2124 31.1033 82.2305 31.1213C82.2485 31.1393 82.2586 31.1638 82.2586 31.1892C82.2586 31.2147 82.2485 31.2392 82.2305 31.2572C82.2124 31.2752 82.188 31.2853 82.1625 31.2853C82.137 31.2853 82.1126 31.2752 82.0946 31.2572C82.0765 31.2392 82.0664 31.2147 82.0664 31.1892C82.0664 31.1638 82.0765 31.1393 82.0946 31.1213C82.1126 31.1033 82.137 31.0931 82.1625 31.0931Z" fill="#DBDBDB"/>
<path id="Vector_38" d="M66.2751 6.65662C66.2984 6.66011 66.3196 6.67185 66.335 6.68968C66.3503 6.70752 66.3588 6.73028 66.3588 6.75381C66.3588 6.77735 66.3503 6.8001 66.335 6.81794C66.3196 6.83577 66.2984 6.84751 66.2751 6.85101C66.2518 6.84751 66.2306 6.83577 66.2152 6.81794C66.1999 6.8001 66.1914 6.77735 66.1914 6.75381C66.1914 6.73028 66.1999 6.70752 66.2152 6.68968C66.2306 6.67185 66.2518 6.66011 66.2751 6.65662Z" fill="#DBDBDB"/>
<path id="Vector_39" d="M58.8575 11.8289C58.9231 11.8348 58.9842 11.8652 59.0286 11.9139C59.0731 11.9626 59.0978 12.0261 59.0978 12.092C59.0978 12.158 59.0731 12.2215 59.0286 12.2702C58.9842 12.3189 58.9231 12.3493 58.8575 12.3552C58.7918 12.3493 58.7308 12.3189 58.6863 12.2702C58.6418 12.2215 58.6172 12.158 58.6172 12.092C58.6172 12.0261 58.6418 11.9626 58.6863 11.9139C58.7308 11.8652 58.7918 11.8348 58.8575 11.8289Z" fill="#DBDBDB"/>
<path id="Vector_40" d="M82.2562 38.4755C82.3257 38.4755 82.3924 38.5031 82.4416 38.5522C82.4907 38.6014 82.5183 38.668 82.5183 38.7376C82.5183 38.8071 82.4907 38.8737 82.4416 38.9229C82.3924 38.9721 82.3257 38.9997 82.2562 38.9997C82.1867 38.9997 82.1201 38.9721 82.0709 38.9229C82.0218 38.8737 81.9941 38.8071 81.9941 38.7376C81.9941 38.668 82.0218 38.6014 82.0709 38.5522C82.1201 38.5031 82.1867 38.4755 82.2562 38.4755Z" fill="#DBDBDB"/>
<path id="Vector_41" d="M11.9945 64.4365C12.064 64.4365 12.1307 64.4641 12.1799 64.5133C12.229 64.5624 12.2566 64.6291 12.2566 64.6986C12.2566 64.7681 12.229 64.8348 12.1799 64.884C12.1307 64.9331 12.064 64.9607 11.9945 64.9607C11.925 64.9607 11.8583 64.9331 11.8092 64.884C11.76 64.8348 11.7324 64.7681 11.7324 64.6986C11.7324 64.6291 11.76 64.5624 11.8092 64.5133C11.8583 64.4641 11.925 64.4365 11.9945 64.4365Z" fill="#DBDBDB"/>
<path id="Vector_42" d="M25.2324 13.1895L25.7042 13.2768L25.809 13.7748L25.9139 13.2768L26.3878 13.1895L25.9161 13.0759L25.809 12.6041L25.702 13.0759L25.2324 13.1895Z" fill="#DBDBDB"/>
<path id="Vector_43" d="M66.2297 85.4438C66.2629 85.4481 66.2935 85.4642 66.3156 85.4894C66.3378 85.5145 66.35 85.5469 66.35 85.5804C66.35 85.6139 66.3378 85.6462 66.3156 85.6713C66.2935 85.6965 66.2629 85.7127 66.2297 85.7169C66.1964 85.7127 66.1659 85.6965 66.1437 85.6713C66.1216 85.6462 66.1094 85.6139 66.1094 85.5804C66.1094 85.5469 66.1216 85.5145 66.1437 85.4894C66.1659 85.4642 66.1964 85.4481 66.2297 85.4438Z" fill="#DBDBDB"/>
<path id="Vector_44" d="M57.1555 84.1531C57.1887 84.1573 57.2192 84.1735 57.2414 84.1986C57.2635 84.2237 57.2758 84.2561 57.2758 84.2896C57.2758 84.3231 57.2635 84.3554 57.2414 84.3806C57.2192 84.4057 57.1887 84.4219 57.1555 84.4261C57.1222 84.4219 57.0917 84.4057 57.0695 84.3806C57.0474 84.3554 57.0352 84.3231 57.0352 84.2896C57.0352 84.2561 57.0474 84.2237 57.0695 84.1986C57.0917 84.1735 57.1222 84.1573 57.1555 84.1531Z" fill="#DBDBDB"/>
<path id="Vector_45" d="M76.2637 75.9494L76.7355 76.0367L76.8403 76.5347L76.9473 76.0367L77.4191 75.9494L76.9495 75.8336L76.8403 75.364L76.7333 75.8336L76.2637 75.9494Z" fill="#DBDBDB"/>
<path id="Vector_46" d="M80.5703 87.8815L81.0421 87.9689L81.1491 88.4669L81.254 87.9689L81.7257 87.8793L81.2561 87.7657L81.1491 87.2961L81.0399 87.7657L80.5703 87.8815Z" fill="#DBDBDB"/>
<path id="Vector_47" d="M77.4184 82.2354C77.4439 82.2354 77.4683 82.2455 77.4863 82.2635C77.5043 82.2815 77.5145 82.306 77.5145 82.3315C77.5145 82.3569 77.5043 82.3814 77.4863 82.3994C77.4683 82.4174 77.4439 82.4276 77.4184 82.4276C77.3929 82.4276 77.3684 82.4174 77.3504 82.3994C77.3324 82.3814 77.3223 82.3569 77.3223 82.3315C77.3223 82.306 77.3324 82.2815 77.3504 82.2635C77.3684 82.2455 77.3929 82.2354 77.4184 82.2354Z" fill="#DBDBDB"/>
<path id="Vector_48" d="M9.21484 51.9954L9.68662 52.0828L9.79146 52.5807L9.8963 52.0828L10.3703 51.9954L9.89849 51.8796L9.79146 51.41L9.68444 51.8796L9.21484 51.9954Z" fill="#DBDBDB"/>
<path id="Vector_49" d="M3.75507 62.13C3.7883 62.1342 3.81885 62.1504 3.841 62.1755C3.86315 62.2007 3.87537 62.233 3.87537 62.2665C3.87537 62.3 3.86315 62.3324 3.841 62.3575C3.81885 62.3826 3.7883 62.3988 3.75507 62.403C3.72183 62.3988 3.69128 62.3826 3.66913 62.3575C3.64698 62.3324 3.63477 62.3 3.63477 62.2665C3.63477 62.233 3.64698 62.2007 3.66913 62.1755C3.69128 62.1504 3.72183 62.1342 3.75507 62.13Z" fill="#DBDBDB"/>
<path id="Vector_50" d="M11.9938 36.4967C12.0171 36.5002 12.0384 36.5119 12.0537 36.5298C12.0691 36.5476 12.0775 36.5704 12.0775 36.5939C12.0775 36.6174 12.0691 36.6402 12.0537 36.658C12.0384 36.6759 12.0171 36.6876 11.9938 36.6911C11.9706 36.6876 11.9493 36.6759 11.934 36.658C11.9186 36.6402 11.9102 36.6174 11.9102 36.5939C11.9102 36.5704 11.9186 36.5476 11.934 36.5298C11.9493 36.5119 11.9706 36.5002 11.9938 36.4967Z" fill="#DBDBDB"/>
<path id="Vector_51" d="M18.336 9.98755C18.4017 9.99354 18.4627 10.0239 18.5072 10.0726C18.5516 10.1212 18.5763 10.1848 18.5763 10.2507C18.5763 10.3167 18.5516 10.3802 18.5072 10.4289C18.4627 10.4776 18.4017 10.5079 18.336 10.5139C18.2703 10.5079 18.2093 10.4776 18.1648 10.4289C18.1204 10.3802 18.0957 10.3167 18.0957 10.2507C18.0957 10.1848 18.1204 10.1212 18.1648 10.0726C18.2093 10.0239 18.2703 9.99354 18.336 9.98755Z" fill="#DBDBDB"/>
<g id="speech-bubble">
<path id="Vector_52" d="M79.1842 9.34153C79.1421 10.7962 78.6966 12.2106 77.8975 13.4268C77.0983 14.643 75.977 15.6133 74.6585 16.2293C73.34 16.8452 71.8762 17.0827 70.4306 16.9152C68.985 16.7477 67.6144 16.1818 66.4717 15.2807L62.5963 16.1503L64.3026 12.6154C63.7713 11.5469 63.4905 10.3713 63.4816 9.17801C63.4727 7.98473 63.7358 6.8051 64.251 5.72873C64.7662 4.65237 65.5199 3.70757 66.455 2.96611C67.39 2.22465 68.4817 1.70602 69.6471 1.44963C70.8126 1.19324 72.0211 1.20583 73.181 1.48644C74.3408 1.76704 75.4215 2.30829 76.3408 3.06906C77.2602 3.82983 77.9941 4.79012 78.4868 5.87698C78.9795 6.96384 79.218 8.14869 79.1842 9.34153Z" fill="white"/>
<path id="Vector_53" d="M79.1846 9.34135C79.1456 10.795 78.705 12.2096 77.9117 13.4283C77.5255 14.0436 77.0456 14.5947 76.4891 15.0616C75.9467 15.5434 75.3385 15.9456 74.6828 16.256C74.0271 16.5729 73.33 16.7955 72.612 16.9173C72.253 16.9769 71.8903 17.0116 71.5264 17.021C71.1619 17.039 70.7966 17.0285 70.4338 16.9894C68.9696 16.8322 67.5782 16.2704 66.4153 15.3669L66.5086 15.3884L62.6414 16.2826L62.3588 16.3481L62.4844 16.0859L64.1776 12.5456L64.1878 12.6807C63.6436 11.5927 63.357 10.3941 63.3499 9.17764C63.3429 7.96116 63.6156 6.75934 64.1471 5.66506C64.678 4.57415 65.4488 3.61739 66.4016 2.86634C67.3535 2.12438 68.4611 1.60757 69.6412 1.35467C70.8214 1.10178 72.0434 1.11935 73.2158 1.40608C74.377 1.70617 75.4564 2.26207 76.375 3.03311C77.2916 3.80221 78.021 4.76998 78.5078 5.86299C78.9946 6.95601 79.226 8.14555 79.1846 9.34135ZM79.1846 9.34135C79.2228 8.15166 78.9872 6.96909 78.4958 5.88494C78.0045 4.80079 77.2705 3.84406 76.3507 3.08862C75.4308 2.33318 74.3497 1.79924 73.1907 1.52801C72.0317 1.25679 70.8259 1.25554 69.6663 1.52436C68.5179 1.78355 67.4444 2.30322 66.5287 3.04323C65.6217 3.78787 64.8874 4.72079 64.3767 5.77737C63.8753 6.83551 63.6198 7.99344 63.6295 9.16435C63.6412 10.343 63.9186 11.5039 64.441 12.5606L64.4745 12.6276L64.4417 12.6964L62.7225 16.226L62.5686 16.029L66.449 15.1843L66.5024 15.1803L66.5427 15.212C67.6644 16.1089 69.0135 16.6761 70.4391 16.85C70.7945 16.895 71.1529 16.9114 71.5109 16.899C71.8696 16.8973 72.2276 16.8704 72.5825 16.8184C73.2936 16.707 73.9861 16.4986 74.6406 16.1992C75.2969 15.9028 75.9063 15.512 76.4495 15.0393C77.0038 14.576 77.4849 14.0316 77.8766 13.4246C78.6817 12.2106 79.1345 10.7972 79.1846 9.34135Z" fill="#7CC0E2"/>
<path id="Vector_54" d="M67.7794 13.0524C67.7656 12.9488 67.7732 12.8435 67.8017 12.743C67.8303 12.6425 67.8792 12.5489 67.9454 12.468C68.0116 12.3872 68.0938 12.3208 68.1867 12.2731C68.2797 12.2253 68.3814 12.1971 68.4857 12.1903C68.6991 12.1743 68.9101 12.2437 69.0723 12.3832C69.2345 12.5227 69.3346 12.721 69.3506 12.9343C69.3667 13.1477 69.2973 13.3587 69.1578 13.5209C69.0182 13.6831 68.82 13.7832 68.6067 13.7993C68.5025 13.8081 68.3977 13.7955 68.2986 13.7622C68.1996 13.7288 68.1085 13.6755 68.0309 13.6054C67.9533 13.5354 67.891 13.4502 67.8477 13.3551C67.8045 13.2599 67.7812 13.1569 67.7794 13.0524ZM67.9541 11.1716L67.3032 4.9508L68.5601 4.85632L68.8465 11.1046L67.9541 11.1716Z" fill="#5DACEE"/>
<path id="Vector_55" d="M70.7677 12.8278C70.7539 12.7245 70.7614 12.6195 70.7898 12.5191C70.8182 12.4188 70.8668 12.3254 70.9327 12.2447C70.9986 12.1639 71.0803 12.0975 71.1729 12.0496C71.2655 12.0016 71.3669 11.9732 71.4708 11.966C71.6842 11.9499 71.8952 12.0193 72.0574 12.1588C72.2196 12.2984 72.3197 12.4966 72.3358 12.71C72.3518 12.9233 72.2824 13.1343 72.1429 13.2965C72.0034 13.4587 71.8051 13.5588 71.5918 13.5749C71.4879 13.5833 71.3834 13.5703 71.2847 13.5368C71.186 13.5032 71.0952 13.4498 71.018 13.3798C70.9408 13.3098 70.8787 13.2247 70.8357 13.1297C70.7926 13.0348 70.7695 12.932 70.7677 12.8278ZM70.9424 10.947L70.3009 4.72548L71.5578 4.631L71.8442 10.8792L70.9424 10.947Z" fill="#5DACEE"/>
<path id="Vector_56" d="M73.754 12.6035C73.7402 12.4999 73.7478 12.3945 73.7763 12.294C73.8049 12.1935 73.8538 12.0999 73.92 12.0191C73.9862 11.9382 74.0684 11.8719 74.1613 11.8241C74.2543 11.7763 74.356 11.7482 74.4603 11.7414C74.6737 11.7253 74.8847 11.7947 75.0469 11.9342C75.2091 12.0738 75.3092 12.272 75.3252 12.4854C75.3413 12.6987 75.2719 12.9097 75.1324 13.0719C74.9929 13.2341 74.7946 13.3342 74.5813 13.3503C74.4771 13.3591 74.3723 13.3465 74.2732 13.3132C74.1742 13.2798 74.0831 13.2265 74.0055 13.1565C73.9279 13.0864 73.8656 13.0012 73.8223 12.9061C73.7791 12.811 73.7558 12.7079 73.754 12.6035ZM73.9287 10.7227L73.2778 4.50182L74.5347 4.40734L74.8243 10.6554L73.9287 10.7227Z" fill="#5DACEE"/>
</g>
</g>
<g id="Earth">
<path id="Vector_57" d="M80.3262 48.0728C80.3407 55.1415 78.1055 62.0315 73.9441 67.7455C70.5788 72.3793 66.0807 76.072 60.8803 78.4705C55.6799 80.869 49.951 81.893 44.2417 81.4445C38.5324 80.996 33.0337 79.0901 28.2715 75.9091C23.5093 72.7281 19.643 68.3783 17.0425 63.2759C14.4419 58.1736 13.194 52.4893 13.4182 46.7668C13.6425 41.0443 15.3313 35.475 18.3231 30.5918C21.3149 25.7085 25.5097 21.6746 30.5061 18.8759C35.5026 16.0773 41.1336 14.6074 46.8605 14.6071C47.7778 14.6071 48.6872 14.6435 49.5885 14.7163C54.7704 15.1326 59.7826 16.7581 64.2224 19.4625C67.6517 21.5486 70.6795 24.2324 73.1622 27.3866C77.8098 33.2795 80.3339 40.5677 80.3262 48.0728Z" fill="#81C5FF"/>
<g id="Group_2" opacity="0.1">
<path id="Vector_58" d="M54.0884 63.8687C53.6668 64.9936 54.368 65.0394 54.416 65.509C54.4641 65.9786 54.416 66.8676 53.0575 68.2283C51.6989 69.589 49.447 69.3051 48.9796 69.8686C48.5122 70.4321 47.7128 72.8216 46.588 73.6166C45.4631 74.4117 45.2775 73.9464 43.683 74.2719C42.0886 74.5973 40.8698 76.6614 40.4068 77.6464C39.9437 78.6315 40.5007 80.2674 39.3759 80.3176C38.251 80.3679 37.7355 77.9282 36.7046 76.6155C35.6737 75.3028 35.3461 74.1321 35.0184 72.5835C34.6908 71.035 35.2041 67.8024 35.0184 66.5378C34.8328 65.2731 31.4561 63.0234 30.2373 61.4749C29.0186 59.9263 27.3302 56.8357 27.4241 55.796C27.5667 54.7954 28.0663 53.88 28.8307 53.2187C29.392 52.795 29.1583 52.5635 29.2523 52.1856C29.3462 51.8078 29.8158 51.7182 29.9075 51.2486C29.9992 50.779 29.6279 49.3746 29.1583 49.1409C28.6887 48.9072 28.3611 49.7022 28.0815 49.5625C27.802 49.4227 26.9567 48.4376 26.6269 48.3437C26.2971 48.2498 26.3932 48.9531 25.9236 48.0619C25.454 47.1708 25.2225 44.9211 24.8468 44.5476C24.4711 44.1741 24.1916 45.2029 23.3004 44.5476C22.4093 43.8924 22.0336 42.6255 21.6601 42.4377C21.2866 42.2499 20.769 42.4836 20.3824 41.7344C19.9958 40.9852 20.7209 39.6245 20.3824 39.7687C20.0438 39.9128 19.3165 40.9874 19.1287 39.9543C18.9408 38.9212 20.0657 35.4549 19.8778 33.5809C19.69 31.7069 20.3474 29.7368 21.6601 28.1446C21.6601 28.1446 21.8458 27.1136 22.0336 26.4562C22.2214 25.7988 26.2534 23.1799 26.7208 22.4264C26.9174 22.1119 26.9829 21.6205 27.0528 21.0919C32.7919 16.8671 39.7346 14.5942 46.861 14.6071C47.7783 14.6071 48.6877 14.6435 49.589 14.7163C49.6196 14.76 49.6502 14.8015 49.6807 14.8408C50.087 15.3563 50.526 15.6839 51.7142 16.1229C52.9024 16.5619 53.182 17.1211 52.9308 17.5907C52.6796 18.0603 52.2755 18.152 51.8059 18.1848C51.3363 18.2175 50.8995 17.9664 50.4015 18.2787C49.9035 18.591 49.4012 20.2772 48.7437 20.3711C48.0863 20.465 46.9331 18.8728 46.6819 18.4054C46.4307 17.938 47.2454 16.9376 46.861 16.468C46.4766 15.9984 45.8082 16.0923 44.7445 15.9984C43.6808 15.9045 41.2149 16.3129 41.3067 16.7192C41.3984 17.1254 44.9324 16.6559 45.0197 17.4684C45.1071 18.2809 42.4271 19.6525 41.9619 19.5302C41.4967 19.4079 40.8698 18.5932 40.1796 18.4993C39.4894 18.4054 38.9303 18.9689 38.4978 19.03C38.0654 19.0912 37.5564 18.5626 36.899 18.6871C36.2416 18.8116 36.0865 19.373 35.7436 19.5936C35.4007 19.8142 34.586 19.812 34.4943 20.3121C34.4025 20.8123 35.5252 21.0941 35.8047 21.4042C36.0843 21.7144 35.4618 22.7781 35.7436 22.9965C36.0254 23.2149 37.7749 21.686 38.2117 21.3103C38.6485 20.9346 39.0242 19.3096 39.959 19.3446C40.8938 19.3795 41.2106 20.9696 41.5207 21.1268C41.8309 21.2841 42.521 20.7512 43.5542 20.9696C44.5873 21.188 45.3015 23.4399 45.4893 24.1257C45.6772 24.8115 46.1162 25.5017 45.7405 25.7835C45.3648 26.0652 43.6787 25.5956 43.4602 25.1566C43.2418 24.7176 44.5851 24.0645 44.4912 23.9073C44.3972 23.75 43.6175 23.5316 43.2091 23.7762C42.8006 24.0209 42.615 24.5319 42.1781 24.6499C41.7413 24.7678 40.5837 23.4617 40.2714 23.8352C39.959 24.2087 40.5837 25.3991 40.896 25.6808C41.2084 25.9626 42.366 26.1176 42.4599 26.43C42.5538 26.7423 41.678 27.4281 40.6143 27.367C39.5506 27.3058 38.6791 26.4933 38.2707 26.8362C37.8622 27.1792 38.085 28.0856 37.8033 28.3979C37.5215 28.7102 35.9904 28.4918 35.2412 29.3043C34.4921 30.1169 34.1492 31.3356 33.3978 32.0236C32.6464 32.7116 32.3057 31.8358 31.3032 32.8034C30.3007 33.771 30.1478 35.9289 30.1172 36.6781C30.0866 37.4272 30.1172 38.0213 29.866 37.9274C29.6148 37.8335 29.2719 37.1782 29.178 36.772C29.0841 36.3657 29.3964 35.6799 29.3964 35.4287C29.3964 35.1776 27.957 33.8998 27.114 33.7731C26.2709 33.6465 25.5195 34.3345 24.897 34.8346C24.2746 35.3348 23.1497 35.2409 22.7413 35.6472C22.3328 36.0534 22.0205 39.6485 22.3328 40.4916C22.6452 41.3347 23.0514 41.3347 24.0518 40.8979C25.0521 40.461 24.4886 39.6158 25.0827 39.8058C25.3495 39.9056 25.5793 40.0847 25.7413 40.319C25.9033 40.5532 25.9898 40.8315 25.9891 41.1163C25.9891 41.6165 24.8031 42.8025 24.9582 43.1476C25.1133 43.4927 26.1464 43.0842 26.6466 43.2415C27.1467 43.3987 27.3957 43.7089 27.2406 44.9888C27.0856 46.2687 27.1773 47.2691 27.9265 47.6906C28.6756 48.1122 29.0994 47.0812 29.427 47.2232C29.7546 47.3652 30.2242 48.1122 30.6916 48.0663C31.159 48.0204 30.9275 47.5967 31.8165 47.3171C32.7054 47.0376 32.38 46.8475 32.5678 46.2862C32.7557 45.7249 33.317 45.2531 33.9264 45.5349C34.5357 45.8166 34.1142 46.2382 34.1601 46.7077C34.2059 47.1773 35.2849 47.2232 36.1258 47.5028C36.9667 47.7824 37.4363 47.5028 39.1247 48.0663C40.813 48.6298 40.9048 50.316 41.6081 50.5977C42.3114 50.8795 44.655 50.4099 46.3433 51.6287C48.0317 52.8474 47.5621 55.0971 48.4052 55.7524C49.2483 56.4076 52.3891 57.3009 53.6079 57.5346C54.8266 57.7684 55.0145 56.9253 55.9973 57.159C56.9802 57.3927 57.5459 57.6744 57.8735 59.0352C58.1728 60.2365 54.5056 62.7439 54.0884 63.8687Z" fill="black"/>
<path id="Vector_59" d="M28.9022 39.902C28.9328 40.1663 29.7147 40.2777 30.6496 40.8084C31.5844 41.3392 31.9295 42.9008 32.4297 42.8703C32.9298 42.8397 32.7748 42.1211 32.9626 41.9333C33.1504 41.7454 33.4606 41.3392 32.9626 40.9329C32.4646 40.5267 31.9753 39.6508 31.0624 39.5263C30.1494 39.4018 29.9921 39.0261 29.5859 39.0589C29.4823 39.0601 29.3802 39.0841 29.2869 39.1293C29.1936 39.1744 29.1114 39.2395 29.0462 39.32C28.9809 39.4005 28.9342 39.4944 28.9093 39.5949C28.8844 39.6955 28.882 39.8004 28.9022 39.902Z" fill="black"/>
<path id="Vector_60" d="M34.0585 42.5273C33.9209 42.9095 34.0585 43.1825 35.0589 43.4337C36.0592 43.6849 36.9962 43.1825 36.6839 42.9794C36.3716 42.7762 35.902 42.8702 36.0898 42.5273C36.2776 42.1843 36.2143 41.682 35.4018 41.7759C34.5893 41.8698 34.194 42.1756 34.0585 42.5273Z" fill="black"/>
<path id="Vector_61" d="M37.558 42.6321C37.2151 42.6823 37.0251 43.2764 37.3701 43.6521C37.7152 44.0278 37.7131 43.9644 38.1193 43.6521C38.5256 43.3398 39.1502 43.1825 38.993 42.8702C38.8357 42.5578 37.9053 42.584 37.558 42.6321Z" fill="black"/>
<path id="Vector_62" d="M40.2758 43.9097C40.4287 43.4401 41.2128 43.9097 41.5579 44.4011C41.903 44.8925 41.7457 45.6199 41.5579 46.1484C41.37 46.677 41.2455 47.3039 40.8065 47.0549C40.3675 46.8059 40.8393 46.0545 40.7759 45.6177C40.7126 45.1808 40.1513 44.2919 40.2758 43.9097Z" fill="black"/>
<path id="Vector_63" d="M53.7435 17.8419C53.5797 18.2329 54.3376 18.3727 54.7744 18.6217C55.2113 18.8707 55.5564 19.0279 55.8054 18.6217C56.0543 18.2154 55.7136 17.748 55.3685 17.6541C55.0234 17.5602 53.9008 17.4662 53.7435 17.8419Z" fill="black"/>
<path id="Vector_64" d="M59.6485 21.4959C59.9368 21.8017 60.4304 21.747 60.7733 22.1839C61.1162 22.6207 60.9917 23.3721 61.4286 23.5905C61.8654 23.8089 62.1777 23.5905 62.2083 23.2781C62.2389 22.9658 61.5836 22.1861 61.647 22.0288C61.7103 21.8715 62.5534 22.2472 62.7391 22.7146C62.9247 23.182 62.5512 23.8395 62.9881 23.9662C63.4249 24.0928 63.331 23.5293 63.5188 23.4026C63.7066 23.276 64.1129 23.3415 64.0823 22.9658C64.0517 22.5901 63.5494 21.7776 63.1453 21.4959C62.7412 21.2141 62.4245 20.904 61.7387 20.7467C61.0529 20.5894 60.3955 20.7161 60.0504 20.9979C59.7053 21.2796 59.4716 21.3102 59.6485 21.4959Z" fill="black"/>
<path id="Vector_65" d="M73.1688 27.3866C73.1492 27.5128 73.0867 27.6285 72.9919 27.7142C72.3367 28.1838 71.5547 26.5588 70.6483 26.2464C69.7419 25.9341 69.3378 24.7787 69.1478 25.0277C68.9578 25.2767 69.0233 25.6218 68.7415 26.028C68.4598 26.4343 68.0557 26.3403 67.8679 27.1201C67.68 27.8998 68.7415 29.337 68.4926 29.8066C68.2436 30.2762 67.9312 30.1189 67.4289 30.0884C66.9265 30.0578 67.0226 30.4946 66.3674 30.3068C65.7121 30.1189 66.2734 29.3064 65.2425 28.341C64.2116 27.3756 63.8665 27.1834 64.0871 26.7466C64.3077 26.3098 63.9932 25.6851 64.4606 25.6218C64.928 25.5584 65.3059 26.2464 65.6182 26.4343C65.9305 26.6221 66.3368 26.0586 66.3674 25.5606C66.3979 25.0626 65.2753 24.3746 64.8668 23.9858C64.4584 23.597 64.43 22.1861 64.5873 21.9043C64.7445 21.6226 65.2119 21.7165 65.3364 21.0306C65.4085 20.6266 64.7707 19.9517 64.2291 19.4646C67.6582 21.5501 70.686 24.2332 73.1688 27.3866Z" fill="black"/>
<path id="Vector_66" d="M77.8358 55.4006C77.9297 54.4003 77.4317 54.337 77.9297 52.4935C78.4277 50.6501 77.3989 48.6822 77.0254 48.2759C76.652 47.8696 75.8373 47.9941 75.1798 48.4004C74.5224 48.8067 74.9942 49.119 74.5552 49.2741C74.1161 49.4291 73.6815 49.1802 73.2752 49.2107C72.869 49.2413 72.4933 50.2744 71.6196 50.2416C70.746 50.2089 70.1825 48.9617 69.525 48.0706C68.8676 47.1795 67.5243 46.6181 67.0875 45.5239C66.6507 44.4296 67.4938 42.7434 67.3059 41.4613C67.1181 40.1792 66.275 40.461 66.1177 39.7424C65.9605 39.0238 66.2444 39.3689 66.4628 38.6809C66.6812 37.9929 66.2117 37.6194 66.6507 36.4312C67.0897 35.243 67.8694 34.6489 67.6816 34.1182C67.4938 33.5874 66.8997 32.7137 66.8691 32.0891C66.8385 31.4644 67.4632 31.495 68.6492 30.6191C69.8352 29.7433 70.1497 29.8066 71.0518 30.119C71.7016 30.3601 72.3699 30.5478 73.0503 30.6803C73.5832 30.7742 74.3018 32.1502 74.5202 32.0869C74.7386 32.0235 74.7714 31.6195 74.8653 31.0254C74.9239 30.767 75.0595 30.5324 75.2541 30.3527C78.7825 36.0078 80.5429 42.5873 80.3098 49.2489C80.0767 55.9104 77.8608 62.3508 73.9458 67.7455C77.1237 62.8814 77.7418 56.401 77.8358 55.4006Z" fill="black"/>
</g>
<path id="Vector_67" opacity="0.1" d="M72.7863 69.2352C69.216 73.6102 64.5968 77.0107 59.3586 79.1202C54.1204 81.2296 48.4337 81.9793 42.8278 81.2995C37.2219 80.6198 31.8792 78.5326 27.297 75.2324C22.7148 71.9321 19.0422 67.5261 16.621 62.4245C14.1998 57.323 13.1089 51.6917 13.4497 46.0551C13.7905 40.4184 15.552 34.9596 18.5702 30.1869C21.5884 25.4143 25.7652 21.4829 30.7116 18.7588C35.6581 16.0347 41.2133 14.6064 46.8603 14.6071C47.7776 14.6071 48.687 14.6435 49.5883 14.7163C49.8373 14.7359 50.0863 14.7578 50.3331 14.7862C45.6032 15.301 41.058 16.9094 37.057 19.4841C33.056 22.0588 29.709 25.5292 27.2807 29.6207C24.8524 33.7122 23.4094 38.3127 23.066 43.0581C22.7225 47.8036 23.488 52.5638 25.3018 56.9624C27.1157 61.3609 29.9281 65.277 33.5167 68.401C37.1052 71.525 41.3715 73.7711 45.978 74.9617C50.5845 76.1523 55.4048 76.2547 60.0577 75.2608C64.7105 74.2669 69.0683 72.2039 72.7863 69.2352Z" fill="black"/>
<path id="Vector_68" opacity="0.3" d="M80.3263 48.0728C80.3408 55.1415 78.1056 62.0315 73.9442 67.7456C70.8062 72.0553 66.6887 75.5573 61.9313 77.9631C66.0784 75.5924 69.6761 72.3698 72.4874 68.5078C76.4269 63.0836 78.6577 56.6069 78.8943 49.9072C79.1309 43.2074 77.3624 36.5896 73.8153 30.9009C73.1705 29.867 72.4691 28.8695 71.7142 27.913C69.2177 24.7414 66.1738 22.0422 62.7264 19.943C58.257 17.2224 53.2119 15.5878 47.9964 15.1706C47.0943 15.0963 46.1769 15.0592 45.2552 15.0592C42.5318 15.0572 39.8181 15.3858 37.1738 16.0377C40.315 15.0878 43.5789 14.6057 46.8606 14.6071C47.7779 14.6071 48.6873 14.6435 49.5886 14.7163C57.9654 15.3989 65.7784 19.2093 71.4737 25.3899C77.169 31.5705 80.3294 39.6683 80.3263 48.0728Z" fill="white"/>
<path id="Vector_69" d="M51.8086 44.7218C50.2797 42.079 46.785 41.4958 44.1247 42.6097C43.2194 43.0164 42.4505 43.6754 41.91 44.5078C42.1284 43.479 42.8754 42.5835 43.8015 42.0025C46.536 40.3447 51.0944 41.2905 51.8086 44.7218Z" fill="#263238"/>
<path id="Vector_70" d="M37.9039 29.0532C35.7734 28.7397 33.6041 29.2617 31.8494 30.51C31.252 30.9313 30.7072 31.4226 30.2266 31.9734C30.3202 31.5976 30.4736 31.2392 30.6809 30.9119C32.0897 28.5749 35.5625 27.485 37.9039 29.0532Z" fill="#263238"/>
<path id="Vector_71" d="M55.8145 29.0532C58.1559 27.485 61.6287 28.5749 63.0375 30.9119C63.2447 31.2392 63.3981 31.5976 63.4918 31.9734C63.0112 31.4226 62.4664 30.9313 61.869 30.51C60.1142 29.2617 57.945 28.7397 55.8145 29.0532Z" fill="#263238"/>
<path id="Vector_72" d="M37.5341 38.7037C37.1972 39.3703 36.6648 39.9247 36.0043 40.2966C35.3438 40.6685 34.5848 40.8413 33.8234 40.7931C33.062 40.7449 32.3324 40.4779 31.7268 40.0258C31.1213 39.5738 30.6671 38.957 30.4217 38.2535C30.1763 37.55 30.1507 36.7915 30.3482 36.0739C30.5456 35.3562 30.9573 34.7118 31.531 34.222C32.1048 33.7322 32.8148 33.4191 33.5713 33.3224C34.3279 33.2256 35.0969 33.3496 35.781 33.6785C36.6974 34.119 37.3968 34.8957 37.7255 35.8379C38.0542 36.7801 37.9853 37.8109 37.5341 38.7037Z" fill="#23353E"/>
<path id="Vector_73" d="M63.3134 38.7037C62.9765 39.3703 62.4441 39.9247 61.7836 40.2966C61.1231 40.6685 60.3641 40.8413 59.6027 40.7931C58.8413 40.7449 58.1116 40.4779 57.5061 40.0258C56.9006 39.5738 56.4464 38.957 56.201 38.2535C55.9556 37.55 55.93 36.7915 56.1275 36.0739C56.3249 35.3562 56.7366 34.7118 57.3103 34.222C57.8841 33.7322 58.5941 33.4191 59.3506 33.3224C60.1072 33.2256 60.8762 33.3496 61.5603 33.6785C62.4767 34.119 63.1761 34.8957 63.5048 35.8379C63.8335 36.7801 63.7646 37.8109 63.3134 38.7037Z" fill="#23353E"/>
<path id="Vector_74" d="M36.7815 37.2164C36.6674 37.4511 36.4864 37.6467 36.2612 37.7784C36.0359 37.9102 35.7767 37.9722 35.5163 37.9567C35.2558 37.9412 35.0058 37.8488 34.7978 37.6911C34.5899 37.5335 34.4333 37.3178 34.348 37.0712C34.2626 36.8246 34.2523 36.5583 34.3183 36.3059C34.3843 36.0534 34.5237 35.8262 34.7188 35.653C34.9139 35.4797 35.156 35.3682 35.4145 35.3326C35.673 35.2969 35.9362 35.3387 36.171 35.4526C36.3269 35.5283 36.4664 35.634 36.5815 35.7636C36.6966 35.8932 36.785 36.0442 36.8417 36.208C36.8984 36.3718 36.9222 36.5452 36.9119 36.7182C36.9016 36.8912 36.8573 37.0605 36.7815 37.2164Z" fill="#455A64"/>
<path id="Vector_75" d="M62.5608 37.2164C62.4467 37.4511 62.2657 37.6467 62.0404 37.7784C61.8152 37.9102 61.556 37.9722 61.2955 37.9567C61.0351 37.9412 60.7851 37.8488 60.5771 37.6911C60.3692 37.5335 60.2126 37.3178 60.1273 37.0712C60.0419 36.8246 60.0316 36.5583 60.0976 36.3059C60.1636 36.0534 60.303 35.8262 60.4981 35.653C60.6932 35.4797 60.9353 35.3682 61.1938 35.3326C61.4523 35.2969 61.7155 35.3387 61.9503 35.4526C62.1062 35.5283 62.2457 35.634 62.3608 35.7636C62.4758 35.8932 62.5643 36.0442 62.621 36.208C62.6777 36.3718 62.7015 36.5452 62.6912 36.7182C62.6809 36.8912 62.6366 37.0605 62.5608 37.2164Z" fill="#455A64"/>
<path id="Vector_76" d="M35.6961 35.4042C35.6996 35.5462 35.6605 35.6859 35.5838 35.8055C35.5071 35.925 35.3963 36.0188 35.2658 36.0747C35.1353 36.1307 34.991 36.1463 34.8516 36.1194C34.7121 36.0926 34.5839 36.0246 34.4835 35.9241C34.3831 35.8237 34.315 35.6955 34.2882 35.5561C34.2614 35.4166 34.2769 35.2723 34.3329 35.1418C34.3888 35.0113 34.4826 34.9005 34.6021 34.8238C34.7217 34.7471 34.8614 34.708 35.0034 34.7115C35.1857 34.716 35.3593 34.7904 35.4882 34.9194C35.6172 35.0483 35.6916 35.2219 35.6961 35.4042Z" fill="white"/>
<path id="Vector_77" d="M61.4754 35.4042C61.4789 35.5462 61.4398 35.6859 61.3631 35.8055C61.2864 35.925 61.1756 36.0188 61.0451 36.0747C60.9146 36.1307 60.7703 36.1463 60.6308 36.1194C60.4914 36.0926 60.3632 36.0246 60.2628 35.9241C60.1624 35.8237 60.0943 35.6955 60.0675 35.5561C60.0407 35.4166 60.0562 35.2723 60.1122 35.1418C60.1681 35.0113 60.2619 34.9005 60.3814 34.8238C60.501 34.7471 60.6407 34.708 60.7827 34.7115C60.965 34.716 61.1386 34.7904 61.2675 34.9194C61.3965 35.0483 61.4709 35.2219 61.4754 35.4042Z" fill="white"/>
</g>
<g id="Circle">
<path id="Vector_78" d="M70.3418 24.2677L70.9818 24.1279V24.1323L70.3418 24.2677Z" fill="#263238"/>
<path id="Vector_79" d="M72.2617 23.8657L73.5482 23.6233L73.5504 23.6429L72.2639 23.8767L72.2617 23.8657Z" fill="#263238"/>
<path id="Vector_80" d="M74.8379 23.4071L76.1309 23.2192L76.1353 23.252L74.8423 23.4333L74.8379 23.4071Z" fill="#263238"/>
<path id="Vector_81" d="M77.4316 23.0598L78.7334 22.9353L78.7378 22.9834L77.436 23.1013L77.4316 23.0598Z" fill="#263238"/>
<path id="Vector_82" d="M80.0391 22.8523L81.3452 22.8174L81.3474 22.8807L80.0412 22.9091L80.0391 22.8523Z" fill="#263238"/>
<path id="Vector_83" d="M82.6548 22.837L83.9609 22.9288L83.9522 23.0074L82.6504 22.9069L82.6548 22.837Z" fill="#263238"/>
<path id="Vector_84" d="M85.2575 23.11C85.6885 23.1874 86.115 23.2881 86.5352 23.4114L86.509 23.4988C86.0923 23.3755 85.6695 23.2742 85.2422 23.1952L85.2575 23.11Z" fill="#263238"/>
<path id="Vector_85" d="M87.7652 23.8722C88.1653 24.0571 88.5434 24.2864 88.8922 24.5558L88.8245 24.641C88.4869 24.3753 88.1206 24.1482 87.7324 23.9639L87.7652 23.8722Z" fill="#263238"/>
<path id="Vector_86" d="M89.7931 25.5214L89.9569 25.8097C90.0145 25.904 90.0649 26.0026 90.1077 26.1045C90.1964 26.3073 90.2658 26.5179 90.3152 26.7336L90.2059 26.7598C90.1568 26.5505 90.0896 26.3459 90.005 26.1482C89.9628 26.0496 89.9139 25.954 89.8587 25.8621L89.6992 25.5825L89.7931 25.5214Z" fill="#263238"/>
<path id="Vector_87" d="M90.4156 28.0484C90.3828 28.4871 90.3045 28.9212 90.1819 29.3436L90.0684 29.3109C90.1893 28.8964 90.2662 28.4703 90.2977 28.0397L90.4156 28.0484Z" fill="#263238"/>
<path id="Vector_88" d="M89.7324 30.5777L89.1405 31.7484L89.0312 31.6873L89.621 30.5297L89.7324 30.5777Z" fill="#263238"/>
<path id="Vector_89" d="M88.447 32.8644L87.6869 33.9303L87.582 33.8517L88.3421 32.7924L88.447 32.8644Z" fill="#263238"/>
<path id="Vector_90" d="M86.8727 34.9548L86.0143 35.9442L85.916 35.8547L86.77 34.8696L86.8727 34.9548Z" fill="#263238"/>
<path id="Vector_91" d="M85.1252 36.9031L84.2057 37.8336L84.1074 37.7353L85.027 36.807L85.1252 36.9031Z" fill="#263238"/>
<path id="Vector_92" d="M83.2646 38.742L82.3014 39.6266L82.2031 39.5174L83.1663 38.6372L83.2646 38.742Z" fill="#263238"/>
<path id="Vector_93" d="M81.3208 40.4915L80.3227 41.3368L80.2266 41.2232L81.2225 40.3801L81.3208 40.4915Z" fill="#263238"/>
<path id="Vector_94" d="M81.3208 38.4765L80.3227 39.3218L80.2266 39.2082L81.2225 38.3651L81.3208 38.4765Z" fill="#263238"/>
<path id="Vector_95" d="M79.3116 42.1669L78.2873 42.9816L78.1934 42.8593L79.2155 42.049L79.3116 42.1669Z" fill="#263238"/>
<path id="Vector_96" d="M77.2515 43.7788L76.2074 44.5651L76.1113 44.434L77.1575 43.6543L77.2515 43.7788Z" fill="#263238"/>
<path id="Vector_97" d="M75.15 45.336L74.0863 46.0939L73.9902 45.9585L75.0561 45.2028L75.15 45.336Z" fill="#263238"/>
<path id="Vector_98" d="M73.0113 46.841L71.9301 47.5748L71.834 47.4329L72.9173 46.7012L73.0113 46.841Z" fill="#263238"/>
<path id="Vector_99" d="M70.8429 48.2977L69.7465 49.0119L69.6504 48.8634L70.7468 48.1536L70.8429 48.2977Z" fill="#263238"/>
<path id="Vector_100" d="M68.6429 49.7131L67.5334 50.4055L67.4395 50.2526L68.549 49.5624L68.6429 49.7131Z" fill="#263238"/>
<path id="Vector_101" d="M66.4197 51.087L65.297 51.7597L65.2031 51.6002L66.3236 50.9319L66.4197 51.087Z" fill="#263238"/>
<path id="Vector_102" d="M64.1709 52.4236L63.0395 53.0788L62.9434 52.9107L64.0769 52.262L64.1709 52.4236Z" fill="#263238"/>
<path id="Vector_103" d="M61.9003 53.7232L60.758 54.3588L60.6641 54.1863L61.8064 53.5551L61.9003 53.7232Z" fill="#263238"/>
<path id="Vector_104" d="M59.6124 54.9856L58.4613 55.6038L58.3652 55.4268L59.5185 54.8109L59.6124 54.9856Z" fill="#263238"/>
<path id="Vector_105" d="M57.3028 56.2131L56.143 56.8138L56.0469 56.6303L57.2089 56.0319L57.3028 56.2131Z" fill="#263238"/>
<path id="Vector_106" d="M54.9773 57.4079L53.8066 57.9911L53.7148 57.8033L54.8834 57.2201L54.9773 57.4079Z" fill="#263238"/>
<path id="Vector_107" d="M52.6345 58.5678L51.4572 59.1357L51.3633 58.9391L52.5405 58.3756L52.6345 58.5678Z" fill="#263238"/>
<path id="Vector_108" d="M50.2716 59.6947L49.0856 60.243L48.9961 60.0486L50.1799 59.4982L50.2716 59.6947Z" fill="#263238"/>
<path id="Vector_109" d="M47.893 60.7825L46.6982 61.3155L46.6152 61.1233L47.8078 60.5903L47.893 60.7825Z" fill="#263238"/>
<path id="Vector_110" d="M45.5028 61.8375L44.2993 62.3529L44.2207 62.1629L45.4198 61.6475L45.5028 61.8375Z" fill="#263238"/>
<path id="Vector_111" d="M43.0931 62.8574L41.8831 63.3532L41.8066 63.1697L43.0145 62.6718L43.0931 62.8574Z" fill="#263238"/>
<path id="Vector_112" d="M40.6695 63.8402L39.4508 64.3164L39.3809 64.1351L40.5974 63.6567L40.6695 63.8402Z" fill="#263238"/>
<path id="Vector_113" d="M38.2303 64.7838L37.005 65.2425L36.9395 65.0656L38.1626 64.6047L38.2303 64.7838Z" fill="#263238"/>
<path id="Vector_114" d="M35.7757 65.6882L34.5416 66.125L34.4805 65.9524L35.7123 65.5134L35.7757 65.6882Z" fill="#263238"/>
<path id="Vector_115" d="M33.3072 66.5508L32.0666 66.9658L32.0098 66.7955L33.2482 66.3783L33.3072 66.5508Z" fill="#263238"/>
<path id="Vector_116" d="M30.8211 67.3676L29.5739 67.7564L29.5215 67.5904L30.7686 67.1995L30.8211 67.3676Z" fill="#263238"/>
<path id="Vector_117" d="M28.3193 68.1344L27.0634 68.497L27.0176 68.3353L28.2713 67.9706L28.3193 68.1344Z" fill="#263238"/>
<path id="Vector_118" d="M25.8042 68.8463L24.5395 69.1805L24.498 69.0233L25.7605 68.6869L25.8042 68.8463Z" fill="#263238"/>
<path id="Vector_119" d="M23.2712 69.4995L21.9978 69.801L21.9629 69.6459L23.2319 69.3423L23.2712 69.4995Z" fill="#263238"/>
<path id="Vector_120" d="M20.7187 70.0827L19.4366 70.347L19.4082 70.1963L20.6859 69.932L20.7187 70.0827Z" fill="#263238"/>
<path id="Vector_121" d="M18.1528 70.587L16.8619 70.8032L16.8379 70.6569L18.1244 70.4385L18.1528 70.587Z" fill="#263238"/>
<path id="Vector_122" d="M15.5668 70.9935L14.2672 71.1552L14.252 71.0132L15.5472 70.8516L15.5668 70.9935Z" fill="#263238"/>
<path id="Vector_123" d="M12.9653 71.2816L11.6569 71.3712L11.6504 71.2336L12.9522 71.1418L12.9653 71.2816Z" fill="#263238"/>
<path id="Vector_124" d="M10.3476 71.4129L9.03711 71.3998L9.04148 71.2666L10.3454 71.2775L10.3476 71.4129Z" fill="#263238"/>
<path id="Vector_125" d="M7.72754 71.3188L6.42578 71.155L6.44762 71.0283L7.74065 71.1899L7.72754 71.3188Z" fill="#263238"/>
<path id="Vector_126" d="M5.14341 70.8778C4.71892 70.7609 4.30295 70.6149 3.89844 70.441L3.94649 70.3296C4.34581 70.4967 4.7559 70.6368 5.17399 70.749L5.14341 70.8778Z" fill="#263238"/>
<path id="Vector_127" d="M2.74228 69.814C2.37917 69.5606 2.05535 69.2552 1.78125 68.9075L1.87299 68.8354C2.14097 69.1716 2.4575 69.4661 2.81218 69.7091L2.74228 69.814Z" fill="#263238"/>
<path id="Vector_128" d="M1.17052 67.7303C1.04075 67.3058 0.978834 66.8636 0.98705 66.4198H1.10063C1.09206 66.8504 1.15252 67.2795 1.27973 67.691L1.17052 67.7303Z" fill="#263238"/>
<path id="Vector_129" d="M1.16211 65.1246C1.2692 64.6996 1.40867 64.2834 1.57928 63.8796L1.6732 63.9168C1.5072 64.3172 1.37211 64.7298 1.26913 65.1508L1.16211 65.1246Z" fill="#263238"/>
<path id="Vector_130" d="M2.14844 62.698L2.82553 61.5775L2.89761 61.6234L2.23144 62.7439L2.14844 62.698Z" fill="#263238"/>
<path id="Vector_131" d="M3.57812 60.5049L4.38626 59.4762L4.44087 59.5199L3.64147 60.5508L3.57812 60.5049Z" fill="#263238"/>
<path id="Vector_132" d="M5.23438 58.4825L6.12333 57.5215L6.16264 57.5608L5.28243 58.5262L5.23438 58.4825Z" fill="#263238"/>
<path id="Vector_133" d="M7.03906 56.5888L7.98044 55.6824L8.00883 55.713L7.07401 56.6237L7.03906 56.5888Z" fill="#263238"/>
<path id="Vector_134" d="M8.94141 54.7979L9.92209 53.9308L9.93738 53.9526L8.96325 54.8219L8.94141 54.7979Z" fill="#263238"/>
<path id="Vector_135" d="M10.918 53.0855L11.9271 52.2577L11.9336 52.2664L10.9289 53.1008L10.918 53.0855Z" fill="#263238"/>
<path id="Vector_136" d="M12.9688 51.4341L13.4864 51.0322L12.9709 51.4363L12.9688 51.4341Z" fill="#263238"/>
</g>
<path id="Vector_137" d="M95.6478 42.1944L75.3697 38.4109L80.2261 12.3811L95.2844 15.1895L99.5792 21.1244L95.6478 42.1944Z" fill="#EBEBEB"/>
<path id="Vector_138" d="M95.2832 15.1896L99.578 21.1245L94.356 20.1507L95.2832 15.1896Z" fill="#DBDBDB"/>
<path id="Vector_139" d="M85.4199 31.0469L85.487 30.4486C85.587 29.1998 86.2516 27.9415 87.6454 26.8021C88.8987 25.7921 89.6317 25.0299 89.8289 24.0043C90.0513 22.8487 89.4754 21.9392 88.0528 21.6422C87.2374 21.4817 86.3925 21.573 85.6303 21.904L85.362 20.3733C86.2196 19.9737 87.5733 19.8597 88.7729 20.095C91.3779 20.5983 92.2456 22.433 91.917 24.1543C91.6207 25.6945 90.5469 26.638 89.2111 27.72C87.9867 28.7051 87.4338 29.6318 87.2787 30.7986L87.188 31.3929L85.4199 31.0469ZM84.3104 34.1204C84.4718 33.2826 85.151 32.8022 85.9433 32.9559C86.7357 33.1097 87.1676 33.8013 87.0057 34.6408C86.852 35.4331 86.2146 35.943 85.3769 35.7817C84.577 35.6279 84.1513 34.9114 84.3033 34.1186L84.3104 34.1204Z" fill="#DBDBDB"/>
</g>
</svg>
